<svg xmlns="http://www.w3.org/2000/svg" viewBox="0 0 64 64" id="charge"><path fill="#e2eef2" fill-rule="evenodd" d="M12.04,9.27c0-2.36,1.9-4.27,4.27-4.27h25.22c4.73,0,8.54,3.81,8.54,8.54v11.68l-4.52,12.43-18.51,13.53L12.04,9.27Z"></path><path fill="#f0f4f6" fill-rule="evenodd" d="M45.8,52.46V13.54c0-2.37-1.9-4.27-4.27-4.27H12.04c-2.37,0-4.27,1.9-4.27,4.27V54.73c0,2.36,1.9,4.27,4.27,4.27h25.18l8.58-6.53Z"></path><path fill="#e2eef2" fill-rule="evenodd" d="M42.07 47.78c0 6.19-5.02 11.22-11.22 11.22s-11.22-5.02-11.22-11.22 5.02-11.22 11.22-11.22 11.22 5.02 11.22 11.22zM45.8 24.05V13.54c0-2.37-1.9-4.27-4.27-4.27h-4.52c2.37 0 4.27 1.9 4.27 4.27V29.57l4.52-5.52z"></path><path fill="#fdda5c" fill-rule="evenodd" d="M37.22,52.72c-1.16,0-2.16,.62-2.71,1.55h21c-.54-.93-1.55-1.55-2.71-1.55h-15.59Z"></path><path fill="#d7e5eb" fill-rule="evenodd" d="M45.01,20.03c-8.35,0-15.2,6.85-15.2,15.2,0,3.34,1.13,6.42,2.98,8.94-1.44,1.18-2.46,2.84-2.66,4.74l15.41-11.27,4.51-12.43v-4.31c-1.58-.57-3.29-.88-5.05-.88Z"></path><path fill="#e2eef2" fill-rule="evenodd" d="M45.01,20.03c-8.35,0-15.2,6.85-15.2,15.2,0,3.34,1.13,6.42,2.98,8.94-1.6,1.32-2.7,3.22-2.7,5.42,0,1.13,.34,2.17,.83,3.14-.49,.96-.83,2-.83,3.14s.28,2.18,.76,3.14h6.36l8.58-6.53V20.05c-.26-.01-.52-.02-.79-.02Z"></path><path fill="#e2eef2" fill-rule="evenodd" d="M45.01,20.03c-1.29,0-2.54,.17-3.73,.47v9.06l4.52-5.52v-3.99c-.26-.01-.52-.02-.79-.02Z"></path><circle cx="45.01" cy="35.24" r="11.22" fill="#feb87e"></circle><path fill="#fce87b" fill-rule="evenodd" d="M37.22,52.72h15.59c1.74,0,3.14,1.4,3.14,3.14s-1.4,3.14-3.14,3.14h-15.59c-1.74,0-3.14-1.4-3.14-3.14s1.4-3.14,3.14-3.14Z"></path><path fill="#fce87b" fill-rule="evenodd" d="M37.22,46.45h15.59c1.74,0,3.14,1.4,3.14,3.14s-1.4,3.14-3.14,3.14l-7.69,2.31-7.9-2.31c-1.74,0-3.14-1.4-3.14-3.14s1.4-3.14,3.14-3.14Z"></path><path fill="#fdda5c" fill-rule="evenodd" d="M49.65,52.72c1.74,0,3.14,1.4,3.14,3.14s-1.4,3.14-3.14,3.14h3.15c1.74,0,3.13-1.4,3.13-3.14s-1.4-3.14-3.13-3.14h-3.15Z"></path><path fill="#fdda5c" fill-rule="evenodd" d="M49.65,46.45c1.74,0,3.14,1.4,3.14,3.14s-1.4,3.14-3.14,3.14h3.15c1.74,0,3.13-1.4,3.13-3.14s-1.4-3.14-3.13-3.14h-3.15Z"></path><path fill="#fcf4c7" fill-rule="evenodd" d="M52.12,35.24c0,3.92-3.18,7.11-7.11,7.11s-7.11-3.18-7.11-7.11,3.18-7.1,7.11-7.1,7.11,3.18,7.11,7.1Z"></path><path fill="#fca65c" fill-rule="evenodd" d="M45.01,24.02c-.41,0-.81,.02-1.21,.07,5.63,.6,10.01,5.36,10.01,11.15s-4.38,10.55-10.01,11.15c.4,.04,.8,.07,1.21,.07,6.19,0,11.21-5.02,11.21-11.22s-5.02-11.22-11.21-11.22Z"></path><circle cx="37.22" cy="47.78" r="11.22" fill="#fd91ba"></circle><circle cx="37.22" cy="47.78" r="7.1" fill="#ffd0e0"></circle><path fill="#fc76a8" fill-rule="evenodd" d="M37.22,36.57c-.39,0-.77,.02-1.15,.06,5.65,.58,10.06,5.35,10.06,11.16s-4.41,10.58-10.06,11.16c.38,.04,.76,.06,1.15,.06,6.19,0,11.22-5.02,11.22-11.22s-5.02-11.22-11.22-11.22Z"></path><path fill-rule="evenodd" d="M23.31,15.67h6.94c.55,0,1-.45,1-1s-.45-1-1-1h-6.94c-.55,0-1,.45-1,1s.45,1,1,1Z"></path><circle cx="20.14" cy="14.67" r="1.25"></circle><circle cx="16.93" cy="14.67" r="1.25"></circle><circle cx="36.64" cy="14.67" r="1.25"></circle><circle cx="33.43" cy="14.67" r="1.25"></circle><path fill-rule="evenodd" d="M13.51 21.09h27.18c.55 0 1-.45 1-1s-.45-1-1-1H13.51c-.55 0-1 .45-1 1s.45 1 1 1zM13.51 25.75h6.63c.55 0 1-.45 1-1s-.45-1-1-1h-6.63c-.55 0-1 .45-1 1s.45 1 1 1zM13.51 30.41h7.4c.55 0 1-.45 1-1s-.45-1-1-1h-7.4c-.55 0-1 .45-1 1s.45 1 1 1z"></path><path fill-rule="evenodd" d="M57.23,35.24c0-4.52-2.5-8.43-6.16-10.54V13.54c0-5.26-4.28-9.54-9.54-9.54H16.31c-2.61,0-4.69,1.94-5.1,4.44-2.49,.41-4.44,2.49-4.44,5.1V54.73c0,2.91,2.36,5.27,5.27,5.27H52.81c2.28,0,4.14-1.86,4.14-4.14,0-1.28-.62-2.38-1.53-3.14,.91-.76,1.53-1.86,1.53-3.14,0-2.28-1.86-4.14-4.14-4.14h-1.13c3.4-2.21,5.55-5.98,5.55-10.22ZM16.31,6h25.22c4.16,0,7.54,3.38,7.54,7.54v10.23c-.73-.26-1.48-.45-2.27-.57V13.54c0-2.91-2.36-5.27-5.27-5.27H13.24c.43-1.31,1.62-2.27,3.07-2.27Zm-4.27,52c-1.8,0-3.27-1.47-3.27-3.27V13.54c0-1.8,1.47-3.27,3.27-3.27h29.49c1.8,0,3.27,1.47,3.27,3.27v9.5c-6.63,.12-12,5.53-12,12.19,0,.39,.06,.77,.09,1.16-4.6,1.75-7.89,6.18-7.89,11.39,0,4.28,2.22,8.03,5.56,10.22H12.04Zm26.87-22.76c0-3.37,2.74-6.1,6.1-6.1s6.11,2.74,6.11,6.1c0,2.51-1.58,4.69-3.87,5.6-1.89-2.72-4.87-4.6-8.29-5.1-.01-.17-.05-.34-.05-.51Zm-1.69,2.33c5.63,0,10.22,4.58,10.22,10.22s-4.58,10.22-10.22,10.22-10.22-4.58-10.22-10.22,4.58-10.22,10.22-10.22Zm17.73,18.3c0,1.18-.96,2.14-2.14,2.14h-8.93c1.65-1.08,2.98-2.55,3.95-4.27h4.98c1.18,0,2.14,.96,2.14,2.14Zm0-6.27c0,1.18-.96,2.14-2.14,2.14h-4.08c.43-1.24,.71-2.56,.71-3.94,0-.11-.03-.22-.03-.33h3.41c1.18,0,2.14,.96,2.14,2.14Zm-6-5.04c-.19-.69-.42-1.35-.73-1.98,2.9-1.28,4.9-4.08,4.9-7.33,0-4.47-3.64-8.1-8.11-8.1s-8.1,3.64-8.1,8.1c0,.12,.03,.24,.03,.36-.72,.02-1.42,.08-2.1,.21-.01-.19-.05-.38-.05-.57,0-5.63,4.58-10.22,10.22-10.22s10.22,4.58,10.22,10.22c0,4.16-2.52,7.72-6.28,9.31Z"></path><path fill-rule="evenodd" d="M37.22 55.89c4.47 0 8.11-3.64 8.11-8.11s-3.64-8.1-8.11-8.1-8.1 3.64-8.1 8.1 3.64 8.11 8.1 8.11zm0-14.21c3.37 0 6.11 2.74 6.11 6.1s-2.74 6.11-6.11 6.11-6.1-2.74-6.1-6.11 2.74-6.1 6.1-6.1zM13.51 37.91h13.68c.55 0 1-.45 1-1s-.45-1-1-1H13.51c-.55 0-1 .45-1 1s.45 1 1 1zM23.72 40.57H13.51c-.55 0-1 .45-1 1s.45 1 1 1h10.21c.55 0 1-.45 1-1s-.45-1-1-1zM22.33 45.23H13.51c-.55 0-1 .45-1 1s.45 1 1 1h8.82c.55 0 1-.45 1-1s-.45-1-1-1zM33.8 23.75h-8.96c-.55 0-1 .45-1 1s.45 1 1 1h8.96c.55 0 1-.45 1-1s-.45-1-1-1z"></path><path fill-rule="evenodd" d="M34.62 50.38c.2.2.45.29.71.29s.51-.1.71-.29l3.77-3.77c.39-.39.39-1.02 0-1.41s-1.02-.39-1.41 0l-3.77 3.77c-.39.39-.39 1.02 0 1.41zM35.88 46.44c.48-.48.48-1.28 0-1.77-.49-.48-1.28-.48-1.77 0s-.49 1.28 0 1.77c.48.49 1.28.49 1.77 0zM38.56 49.12c-.48.48-.48 1.28 0 1.77.48.48 1.28.48 1.77 0 .48-.49.48-1.28 0-1.77-.48-.48-1.28-.48-1.77 0z"></path></svg>