<svg xmlns="http://www.w3.org/2000/svg" viewBox="0 0 64 64" id="plant-growing"><path fill="#e0e0e2" d="M59,40V50.12a6,6,0,0,1-2.25,4.68L50.25,60a2.013,2.013,0,0,1-2.5,0l-6.5-5.2A6,6,0,0,1,39,50.12V40a2.006,2.006,0,0,1,2-2H57A2.006,2.006,0,0,1,59,40Z"></path><polygon fill="#787680" points="51 15 51 43 49 48 47 43 47 15 51 15"></polygon><path fill="#2d2d30" d="M47,15v2.75a8.125,8.125,0,0,0,4,0V15Z"></path><rect width="3" height="7" x="41" y="40" fill="#d8d7da" rx="1.5"></rect><path fill="#ffda44" d="M44,6V9a3,3,0,0,0,3,3h4a3,3,0,0,0,3-3V6ZM57,3V9a8.006,8.006,0,0,1-6,7.75,8.125,8.125,0,0,1-4,0A8.006,8.006,0,0,1,41,9V3Z"></path><rect width="3" height="1" x="42" y="4" fill="#fff"></rect><path fill="#64c37d" d="M17.86,56.38A29.332,29.332,0,0,1,14,56.6c-.36,0-.71,0-1.03-.01A10,10,0,0,0,6.5,51.32,9.846,9.846,0,0,1,9,51a9.971,9.971,0,0,1,7.93,3.92A8.59,8.59,0,0,1,17.86,56.38Z"></path><path fill="#91dc5a" d="M21.99,55.64v.01c-1.52.21-2.58.52-4.13.73a8.59,8.59,0,0,0-.93-1.46,9.977,9.977,0,0,0-7.43-8.6A9.846,9.846,0,0,1,12,46,10,10,0,0,1,21.99,55.64Z"></path><path fill="#64c37d" d="M32,46a9.921,9.921,0,0,1,3.5.63,9.994,9.994,0,0,0-6.48,8.9c-.82-.08-1.8-.13-3.02-.13a28.734,28.734,0,0,0-3.99.24A10,10,0,0,1,32,46Z"></path><rect width="2" height="16" x="21" y="40" fill="#6a563d"></rect><path fill="#2d2d30" d="M23,40v2.07a3.408,3.408,0,0,0-2,0V40Z"></path><path fill="#ff9811" d="M32.08,33c0,1.64-2.45,2.64-3.22,3.96-.79,1.37-.45,3.98-1.82,4.77-1.32.77-3.4-.81-5.04-.81s-3.72,1.58-5.04.81c-1.37-.79-1.03-3.4-1.82-4.77-.77-1.32-3.22-2.32-3.22-3.96s2.45-2.64,3.22-3.96c.79-1.37.45-3.98,1.82-4.77,1.32-.77,3.4.81,5.04.81s3.72-1.58,5.04-.81c1.37.79,1.03,3.4,1.82,4.77C29.63,30.36,32.08,31.36,32.08,33Z"></path><circle cx="22" cy="33" r="3" fill="#ffda44"></circle><ellipse cx="27.5" cy="49" fill="#a2dbb1" rx="1" ry=".5" transform="rotate(-45 27.5 49)"></ellipse><ellipse cx="20.5" cy="32" fill="#fff" rx="1" ry=".5" transform="rotate(-45 20.5 32)"></ellipse><path fill="#a78966" d="M22.01,55.64A28.734,28.734,0,0,1,26,55.4c1.22,0,2.2.05,3.02.13,3.22.31,4.19,1.07,8.97,1.07a25.591,25.591,0,0,0,5-.41A30.239,30.239,0,0,1,50,55.4a25.6,25.6,0,0,1,5.4.48,27.836,27.836,0,0,0,5.6.71V61H3V55.41c4.7.12,5.29,1.06,9.97,1.18.32.01.67.01,1.03.01a29.332,29.332,0,0,0,3.86-.22c1.55-.21,2.61-.52,4.13-.73v-.01h.02Z"></path></svg>