<svg xmlns="http://www.w3.org/2000/svg" viewBox="0 0 64 64" id="fertilizer"><path fill="#aa6227" d="M43,9c-.406,0-.7952,.0616-1.1731,.1529-.6017-2.3851-2.755-4.1529-5.3269-4.1529-.7903,0-1.54,.1698-2.2192,.47-1.1841-.918-2.6665-1.47-4.2808-1.47-1.9353,0-3.687,.7856-4.9541,2.0551-.181-.0222-.3589-.0551-.5459-.0551-2.0131,0-3.6973,1.3307-4.2722,3.1539-2.2641,.5371-3.968,2.4748-4.1846,4.8461l-.0432,6H48v-6c0-2.7614-2.2386-5-5-5Z"></path><path fill="#ffd13e" d="M48.632,18H15.368c-2.6512,6.8013-4.537,20.1802-2.4906,33.1883,.1416,.9003,.1158,1.8237-.1616,2.6918-.4651,1.4558-.3172,3.2242-.1525,4.2721,.0835,.5315,.5815,.9029,1.117,.8506,.926-.0904,1.6538-.3126,2.2307-.5882,2.5199,.5857,8.0024,1.5854,16.0891,1.5854s13.5692-.9997,16.0891-1.5854c.5768,.2755,1.3047,.4977,2.2307,.5882,.5355,.0523,1.0335-.319,1.117-.8506,.1647-1.048,.3126-2.8164-.1525-4.2721-.2774-.8682-.3033-1.7915-.1616-2.6918,2.0464-13.0081,.1606-26.387-2.4906-33.1883Z"></path><rect width="40" height="6" x="12" y="14" fill="#edaf24" rx="2" ry="2"></rect><circle cx="32" cy="40" r="11" fill="#e2eff7"></circle><path fill="#58a339" d="M34.0356,43.4286c-3.3137,1.9674-8.0356,.1337-8.0356,.1337,0,0,.6507-5.0235,3.9644-6.9909,3.3137-1.9674,8.0356-.1337,8.0356-.1337,0,0-.6507,5.0235-3.9644,6.9909Z"></path><path fill="#2e8c07" d="M25.999,44.5605c-.1943,0-.3916-.0566-.5635-.1753-.4541-.3115-.5723-.9302-.2617-1.3857,.082-.1211,2.0713-2.9888,6.1797-4.3774,.5254-.1758,1.0918,.1035,1.2676,.627,.1768,.5234-.1035,1.0908-.627,1.2676-3.4463,1.165-5.1533,3.5874-5.1699,3.6118-.1943,.2808-.5068,.4321-.8252,.4321Z"></path></svg>