<svg xmlns="http://www.w3.org/2000/svg" viewBox="0 0 508.607 466.288" id="shopping-sale"><path fill="#1bea87" d="M9.106 227.368h192.323v236.13H9.106z"></path><path fill="#12d87e" d="M0 227.368h29.411v236.13H0z"></path><path fill="#ffda00" d="M150.179 247.838h-17.625v-43.8c0-15.046-12.241-27.287-27.287-27.287S77.98 188.992 77.98 204.038v43.8H60.356v-43.8c0-24.764 20.147-44.912 44.912-44.912s44.912 20.147 44.912 44.912v43.8z"></path><path fill="#1bea87" d="M316.284 227.822h192.323v236.13H316.284z"></path><path fill="#12d87e" d="M307.178 227.822h29.411v236.13h-29.411z"></path><path fill="#ffda00" d="M457.357 248.291h-17.625v-43.8c0-15.046-12.241-27.287-27.287-27.287s-27.287 12.241-27.287 27.287v43.8h-17.625v-43.8c0-24.764 20.147-44.912 44.912-44.912 24.764 0 44.912 20.147 44.912 44.912v43.8z"></path><path fill="#ff6700" d="M114.434 104.023h293.163v359.939H114.434z"></path><path fill="#ffda00" d="M329.474 135.225h-26.866V68.46c0-22.935-18.659-41.594-41.594-41.594S219.42 45.525 219.42 68.46v66.766h-26.866V68.46c0-37.749 30.711-68.46 68.46-68.46s68.46 30.711 68.46 68.46v66.765z"></path><circle cx="262.911" cy="295.628" r="92.146" fill="#ffda00"></circle><path d="M226.165 299.886c-8.001 0-14.447-2.536-19.337-7.609-4.891-5.072-7.335-11.897-7.335-20.474 0-9.361 2.601-16.787 7.805-22.279 5.203-5.491 12.145-8.237 20.827-8.237 8.315 0 14.813 2.485 19.494 7.453 4.68 4.969 7.021 11.95 7.021 20.945 0 9.257-2.589 16.605-7.766 22.043-5.177 5.439-12.08 8.158-20.709 8.158zm82.133-57.031-73.269 112.492h-19.141L289 242.855h19.298zm-80.642 12.238c-7.637 0-11.453 5.309-11.453 15.925 0 10.041 3.634 15.062 10.904 15.062 7.425 0 11.139-5.229 11.139-15.689 0-10.199-3.53-15.298-10.59-15.298zm68.561 101.823c-8.001 0-14.447-2.536-19.337-7.609-4.891-5.072-7.335-11.897-7.335-20.474 0-9.361 2.601-16.787 7.805-22.279 5.204-5.491 12.146-8.237 20.827-8.237 8.367 0 14.878 2.459 19.533 7.374 4.654 4.916 6.982 11.872 6.982 20.867 0 9.257-2.589 16.631-7.766 22.121-5.176 5.492-12.08 8.237-20.709 8.237zm1.255-44.793c-7.583 0-11.375 5.309-11.375 15.925 0 10.041 3.687 15.062 11.061 15.062 7.426 0 11.139-5.229 11.139-15.689 0-4.864-.994-8.629-2.981-11.297-1.987-2.667-4.601-4.001-7.844-4.001z"></path><path fill="#e84d00" d="M255.398 464.066s-143 5-143 0-.226-360.043-.226-360.043l74.711.817-28.485 168.256 97 190.97z"></path><path fill="#ffda00" d="m64.704 53.88 12.471-8.502L94.758 71.17l-12.472 8.503zM40.251 103.539l.038-15.094 31.214.078-.038 15.094zM117.53 35.018l14.28 4.893-10.12 29.529-14.278-4.893zM438.164 45.12l11.878 9.314-19.262 24.563-11.877-9.314zM383.452 36.84l14.398-4.53 9.368 29.775-14.398 4.53zM472.133 89.736l-.345 15.09-31.206-.712.345-15.09z"></path><path fill="#d84200" d="M100.553 104.023h44.831v359.939h-44.831z"></path><path fill="#ffb600" d="M186.523 295.628c0-48.236 37.065-87.809 84.267-91.807a93.32 93.32 0 0 0-7.879-.339c-50.891 0-92.146 41.255-92.146 92.146s41.255 92.146 92.146 92.146a93.32 93.32 0 0 0 7.879-.339c-47.202-3.998-84.267-43.571-84.267-91.807z"></path></svg>