<svg xmlns="http://www.w3.org/2000/svg" enable-background="new 0 0 64 64" viewBox="0 0 64 64" id="sprinkler">
    <path fill="#4c4a4f"
        d="M40.707 6.293l-4-4C36.52 2.105 36.266 2 36 2h-3V1c0-.552-.447-1-1-1s-1 .448-1 1v8c0 .552.447 1 1 1s1-.448 1-1V4h2.586l3.707 3.707C39.488 7.902 39.744 8 40 8s.512-.098.707-.293C41.098 7.316 41.098 6.684 40.707 6.293zM29 2h-1c-.266 0-.52.105-.707.293l-4 4c-.391.391-.391 1.023 0 1.414C23.488 7.902 23.744 8 24 8s.512-.098.707-.293L28.414 4H29c.553 0 1-.448 1-1S29.553 2 29 2z">
    </path>
    <path fill="#aac348"
        d="M58 42h3c0 0-2 11-9 4C52 46 53 42 58 42zM46 42c5 0 6 4 6 4-7 7-9-4-9-4H46zM18 42h3c0 0-2 11-9 4C12 46 13 42 18 42zM6 42c5 0 6 4 6 4-7 7-9-4-9-4H6z">
    </path>
    <polygon fill="#cc8964" points="18 59 20 59 24 63 2 63 6 58 8 58 10 56 12 56 15 56"></polygon>
    <polygon fill="#cc8964" points="63 63 41 63 45 58 47 58 49 56 52 56 54 56 57 59 59 59"></polygon>
    <path fill="#9a4738"
        d="M63 63l-3 0H41l1.6-2h8.652c.473 0 .92-.215 1.215-.585v0c.492-.618.442-1.507-.117-2.065l-.895-.895C51.164 57.164 50.769 57 50.357 57H49l-.5-.5L49 56h5l3 3h2L63 63zM24 63l-3 0H2l1.6-2h8.652c.473 0 .92-.215 1.215-.585l0 0c.492-.618.442-1.507-.117-2.065l-.895-.895C12.164 57.164 11.769 57 11.357 57H10l-.5-.5L10 56h5l3 3h2L24 63z">
    </path>
    <path fill="#879a39"
        d="M12 46c7 7 9-4 9-4S16 47 12 46zM12 46c-7 7-9-4-9-4S8 47 12 46zM52 46c7 7 9-4 9-4S56 47 52 46zM52 46c-7 7-9-4-9-4S48 47 52 46z">
    </path>
    <polygon fill="#a0a0a0" points="34 9 36 9 36 15 35 15 32 15 29 15 28 15 28 9 30 9 32 9"></polygon>
    <polygon fill="#686868" points="36 9 36 15 28 15 28 13 32 13 32 9"></polygon>
    <rect width="6" height="48" x="29" y="15" fill="#85ddff"></rect>
    <path fill="#52a3bc" d="M35,15v48h-6v-3h0c1.657,0,3-1.343,3-3V15H35z"></path>
    <path fill="#aac348"
        d="M61 26c0 0 3 6-9 6C52 32 57 26 61 26zM52 32c-9 2-8-10-8-10C50 22 52 32 52 32zM21 26c0 0 3 6-9 6C12 32 17 26 21 26zM4 22c6 0 8 10 8 10C3 34 4 22 4 22z">
    </path>
    <path fill="#879a39" d="M12 32c-9 2-8-10-8-10S6 27 12 32zM52 32c-9 2-8-10-8-10S46 27 52 32z"></path>
    <path fill="#9a4738" d="M63,64H1c-0.553,0-1-0.448-1-1s0.447-1,1-1h62c0.553,0,1,0.448,1,1S63.553,64,63,64z"></path>
    <circle cx="32" cy="23" r="1" fill="#85ddff"></circle>
    <path fill="#a6e1fd"
        d="M32,24.5c-0.827,0-1.5-0.673-1.5-1.5s0.673-1.5,1.5-1.5s1.5,0.673,1.5,1.5S32.827,24.5,32,24.5z M32,22.5c-0.275,0-0.5,0.224-0.5,0.5s0.225,0.5,0.5,0.5s0.5-0.224,0.5-0.5S32.275,22.5,32,22.5z">
    </path>
    <circle cx="18.031" cy="11.5" r="1" fill="#85ddff"></circle>
    <path fill="#a6e1fd"
        d="M18.03,13c-0.744,0-1.392-0.555-1.487-1.312c-0.05-0.398,0.058-0.791,0.304-1.108c0.245-0.316,0.6-0.519,0.997-0.568c0.824-0.101,1.572,0.48,1.676,1.3c0.05,0.398-0.058,0.791-0.304,1.108c-0.245,0.316-0.6,0.519-0.997,0.568C18.155,12.996,18.093,13,18.03,13z M18.031,11c-0.021,0-0.042,0.001-0.063,0.004c-0.133,0.017-0.251,0.084-0.333,0.189c-0.081,0.105-0.117,0.236-0.101,0.369c0.035,0.273,0.286,0.462,0.559,0.434c0.133-0.017,0.251-0.084,0.333-0.189c0.081-0.105,0.117-0.236,0.101-0.369C18.495,11.185,18.279,11,18.031,11z">
    </path>
    <circle cx="14.063" cy="12" r="1" fill="#85ddff"></circle>
    <path fill="#a6e1fd"
        d="M14.062,13.5c-0.744,0-1.392-0.555-1.487-1.312c-0.103-0.822,0.481-1.573,1.301-1.676c0.395-0.047,0.791,0.058,1.107,0.303c0.317,0.246,0.519,0.601,0.568,0.998c0.05,0.397-0.058,0.79-0.304,1.107c-0.245,0.316-0.6,0.519-0.997,0.568C14.187,13.496,14.124,13.5,14.062,13.5z M14.063,11.5c-0.021,0-0.042,0.001-0.063,0.004c-0.273,0.034-0.468,0.285-0.434,0.559c0.034,0.272,0.29,0.46,0.559,0.433c0.133-0.017,0.251-0.084,0.333-0.189c0.081-0.105,0.117-0.236,0.101-0.369c-0.017-0.133-0.084-0.251-0.189-0.333C14.28,11.536,14.174,11.5,14.063,11.5z">
    </path>
    <circle cx="10.094" cy="12.5" r="1" fill="#85ddff"></circle>
    <path fill="#a6e1fd"
        d="M10.093,14c-0.744,0-1.392-0.555-1.487-1.312c-0.103-0.822,0.481-1.573,1.301-1.676c0.396-0.047,0.791,0.058,1.107,0.303c0.317,0.246,0.519,0.601,0.568,0.998c0.05,0.397-0.058,0.79-0.304,1.107c-0.245,0.316-0.6,0.519-0.997,0.568C10.218,13.996,10.155,14,10.093,14z M10.095,12c-0.021,0-0.042,0.001-0.063,0.004c-0.273,0.034-0.468,0.285-0.434,0.559c0.034,0.272,0.288,0.465,0.559,0.433c0.133-0.017,0.251-0.084,0.333-0.189c0.081-0.105,0.117-0.236,0.101-0.369c-0.017-0.133-0.084-0.251-0.189-0.333C10.312,12.036,10.205,12,10.095,12z">
    </path>
    <circle cx="45.969" cy="11.5" r="1" fill="#85ddff"></circle>
    <path fill="#a6e1fd"
        d="M45.97,13c-0.063,0-0.125-0.004-0.188-0.012c-0.397-0.05-0.752-0.252-0.997-0.568c-0.246-0.317-0.354-0.71-0.304-1.108c0.104-0.82,0.852-1.407,1.676-1.3c0.397,0.05,0.752,0.252,0.997,0.568c0.246,0.317,0.354,0.71,0.304,1.108C47.361,12.445,46.714,13,45.97,13z M45.969,11c-0.248,0-0.464,0.185-0.496,0.438c-0.017,0.132,0.02,0.263,0.101,0.369c0.082,0.105,0.2,0.173,0.333,0.189c0.268,0.029,0.523-0.161,0.559-0.434c0.017-0.132-0.02-0.263-0.101-0.369c-0.082-0.105-0.2-0.173-0.333-0.189C46.011,11.001,45.989,11,45.969,11z">
    </path>
    <circle cx="49.937" cy="12" r="1" fill="#85ddff"></circle>
    <path fill="#a6e1fd"
        d="M49.938,13.5c-0.063,0-0.125-0.004-0.188-0.012c-0.397-0.05-0.752-0.252-0.997-0.568c-0.246-0.317-0.354-0.71-0.304-1.108c0.05-0.396,0.251-0.751,0.568-0.997c0.316-0.245,0.715-0.351,1.107-0.303c0.819,0.103,1.403,0.854,1.301,1.675C51.33,12.945,50.683,13.5,49.938,13.5z M49.937,11.5c-0.11,0-0.217,0.036-0.306,0.105c-0.105,0.082-0.173,0.2-0.189,0.332c-0.017,0.133,0.02,0.264,0.101,0.37c0.082,0.105,0.2,0.173,0.333,0.189c0.27,0.028,0.523-0.161,0.559-0.434c0.034-0.273-0.16-0.524-0.434-0.558C49.979,11.501,49.958,11.5,49.937,11.5z">
    </path>
    <g>
        <circle cx="53.906" cy="12.5" r="1" fill="#85ddff"></circle>
        <path fill="#a6e1fd"
            d="M53.907,14c-0.063,0-0.125-0.004-0.188-0.012c-0.397-0.05-0.752-0.252-0.997-0.568c-0.246-0.317-0.354-0.71-0.304-1.108c0.05-0.396,0.251-0.751,0.568-0.997c0.317-0.245,0.715-0.35,1.107-0.303c0.819,0.103,1.403,0.854,1.301,1.675C55.299,13.445,54.651,14,53.907,14z M53.905,12c-0.11,0-0.217,0.036-0.306,0.105c-0.105,0.082-0.173,0.2-0.189,0.332c-0.017,0.133,0.02,0.264,0.101,0.37c0.082,0.105,0.2,0.173,0.333,0.189c0.265,0.033,0.523-0.161,0.559-0.434c0.034-0.273-0.16-0.524-0.434-0.558C53.947,12.001,53.927,12,53.905,12z">
        </path>
    </g>
    <g>
        <circle cx="15.515" cy="19.485" r="1" fill="#85ddff"></circle>
        <path fill="#a6e1fd"
            d="M15.515,20.984c-0.384,0-0.769-0.146-1.061-0.438c-0.283-0.283-0.439-0.66-0.439-1.061c0-0.401,0.156-0.778,0.439-1.061c0.584-0.584,1.537-0.584,2.121,0c0.283,0.283,0.439,0.66,0.439,1.061c0,0.4-0.156,0.777-0.439,1.061C16.283,20.838,15.898,20.984,15.515,20.984z M15.515,18.986c-0.128,0-0.256,0.049-0.354,0.146c-0.095,0.095-0.146,0.22-0.146,0.354c0,0.133,0.052,0.259,0.146,0.354c0.195,0.195,0.512,0.195,0.707,0c0.095-0.095,0.146-0.22,0.146-0.354c0-0.134-0.052-0.259-0.146-0.353C15.771,19.035,15.643,18.986,15.515,18.986z">
        </path>
    </g>
    <g>
        <path fill="#85ddff"
            d="M42.121,13.121c0.391-0.391,1.024-0.391,1.414,0c0.391,0.391,0.391,1.024,0,1.414s-1.024,0.391-1.414,0">
        </path>
        <path fill="#a6e1fd"
            d="M42.828,15.328c-0.384,0-0.769-0.146-1.061-0.438l0.707-0.707c0.195,0.195,0.512,0.195,0.707,0s0.195-0.512,0-0.708c-0.195-0.194-0.512-0.195-0.707,0l-0.707-0.708c0.586-0.583,1.535-0.583,2.121,0c0.585,0.585,0.585,1.537,0,2.122C43.597,15.182,43.212,15.328,42.828,15.328z">
        </path>
    </g>
    <g>
        <path fill="#85ddff"
            d="M46.364,17.364c-0.391,0.391-1.024,0.391-1.414,0c-0.391-0.391-0.391-1.024,0-1.414c0.391-0.391,1.024-0.391,1.414,0">
        </path>
        <path fill="#a6e1fd"
            d="M45.657,18.157C45.656,18.157,45.656,18.157,45.657,18.157c-0.402,0-0.778-0.156-1.061-0.44c-0.283-0.282-0.439-0.659-0.439-1.06c0-0.4,0.156-0.777,0.439-1.061c0.282-0.283,0.658-0.439,1.06-0.439c0,0,0,0,0.001,0c0.4,0,0.777,0.156,1.061,0.439l-0.707,0.707c-0.095-0.094-0.22-0.146-0.354-0.146h-0.001c-0.133,0-0.258,0.052-0.353,0.146c-0.095,0.095-0.146,0.221-0.146,0.354c0,0.134,0.052,0.259,0.146,0.353c0.095,0.095,0.22,0.147,0.353,0.147h0.001c0.134,0,0.259-0.052,0.354-0.146l0.707,0.707C46.435,18,46.058,18.157,45.657,18.157z">
        </path>
    </g>
    <g>
        <path fill="#85ddff"
            d="M45.657,17.657c-0.256,0-0.512-0.098-0.707-0.293l-5.657-5.657c-0.391-0.391-0.391-1.023,0-1.414s1.023-0.391,1.414,0l5.657,5.657c0.391,0.391,0.391,1.023,0,1.414C46.169,17.559,45.913,17.657,45.657,17.657z">
        </path>
        <path fill="#a6e1fd"
            d="M45.657,18.157c-0.4,0-0.777-0.156-1.061-0.439l-5.657-5.657c-0.585-0.585-0.585-1.536,0-2.121c0.584-0.585,1.537-0.585,2.121,0l5.657,5.657c0.585,0.585,0.585,1.536,0,2.121C46.435,18,46.058,18.157,45.657,18.157z M40,10.5c-0.128,0-0.256,0.048-0.354,0.146c-0.195,0.195-0.195,0.512,0,0.707l5.657,5.657c0.189,0.188,0.518,0.188,0.707,0c0.195-0.195,0.195-0.512,0-0.707l-5.657-5.657C40.256,10.549,40.128,10.5,40,10.5z">
        </path>
    </g>
    <g>
        <path fill="#85ddff"
            d="M18.343,17.657c-0.256,0-0.512-0.098-0.707-0.293c-0.391-0.391-0.391-1.023,0-1.414l5.657-5.657c0.391-0.391,1.023-0.391,1.414,0s0.391,1.023,0,1.414l-5.657,5.657C18.854,17.559,18.599,17.657,18.343,17.657z">
        </path>
        <path fill="#a6e1fd"
            d="M18.343,18.157c-0.4,0-0.777-0.156-1.061-0.439c-0.585-0.585-0.585-1.536,0-2.121l5.657-5.657c0.584-0.585,1.537-0.585,2.121,0c0.585,0.585,0.585,1.536,0,2.121l-5.657,5.657C19.12,18,18.743,18.157,18.343,18.157z M24,10.5c-0.128,0-0.256,0.048-0.354,0.146l-5.657,5.657c-0.195,0.195-0.195,0.512,0,0.707c0.189,0.188,0.518,0.188,0.707,0l5.657-5.657c0.195-0.195,0.195-0.512,0-0.707C24.256,10.549,24.128,10.5,24,10.5z">
        </path>
    </g>
    <g>
        <circle cx="48.485" cy="19.485" r="1" fill="#85ddff"></circle>
        <path fill="#a6e1fd"
            d="M48.485,20.984c-0.384,0-0.769-0.146-1.061-0.438c-0.283-0.283-0.439-0.66-0.439-1.061c0-0.401,0.156-0.778,0.439-1.061c0.584-0.584,1.535-0.584,2.121,0l0,0c0.283,0.283,0.439,0.66,0.439,1.061c0,0.4-0.156,0.777-0.439,1.061C49.254,20.838,48.869,20.984,48.485,20.984z M48.485,18.986c-0.128,0-0.256,0.048-0.354,0.146c-0.095,0.095-0.146,0.22-0.146,0.354c0,0.133,0.052,0.259,0.146,0.354c0.195,0.195,0.512,0.195,0.707,0c0.095-0.095,0.146-0.22,0.146-0.354c0-0.134-0.052-0.259-0.146-0.353v0C48.741,19.034,48.613,18.986,48.485,18.986z">
        </path>
    </g>
    <g>
        <path fill="#85ddff"
            d="M32,20c-0.553,0-1-0.448-1-1v-8c0-0.552,0.447-1,1-1s1,0.448,1,1v8C33,19.552,32.553,20,32,20z"></path>
        <path fill="#a6e1fd"
            d="M32,20.5c-0.827,0-1.5-0.673-1.5-1.5v-8c0-0.827,0.673-1.5,1.5-1.5s1.5,0.673,1.5,1.5v8C33.5,19.827,32.827,20.5,32,20.5z M32,10.5c-0.275,0-0.5,0.224-0.5,0.5v8c0,0.276,0.225,0.5,0.5,0.5s0.5-0.224,0.5-0.5v-8C32.5,10.724,32.275,10.5,32,10.5z">
        </path>
    </g>
    <path fill="#686868"
        d="M34,5h-4c-0.553,0-1,0.448-1,1v3c0,0.552,0.447,1,1,1h4c0.553,0,1-0.448,1-1V6C35,5.448,34.553,5,34,5z"></path>
    <g>
        <path fill="#bbcf6b"
            d="M12,57c-0.553,0-1-0.448-1-1V31c0-0.552,0.447-1,1-1s1,0.448,1,1v25C13,56.552,12.553,57,12,57z"></path>
    </g>
    <g>
        <path fill="#bbcf6b"
            d="M52,57c-0.553,0-1-0.448-1-1V31c0-0.552,0.447-1,1-1s1,0.448,1,1v25C53,56.552,52.553,57,52,57z"></path>
    </g>
</svg>